<?xml version="1.0" standalone="no"?>
<!DOCTYPE svg PUBLIC "-//W3C//DTD SVG 20010904//EN"
"http://www.w3.org/TR/2001/REC-SVG-20010904/DTD/svg10.dtd">
<svg version="1.0" xmlns="http://www.w3.org/2000/svg"
width="512.000000pt" height="512.000000pt" viewBox="0 0 512.000000 512.000000"
preserveAspectRatio="xMidYMid meet">
<metadata>
Created by potrace 1.14, written by Peter Selinger 2001-2017
</metadata>
<g transform="translate(0.000000,512.000000) scale(0.100000,-0.100000)"
fill="#000000" stroke="none">
<path d="M1460 3394 c-137 -26 -219 -84 -275 -195 -70 -138 -70 -136 -70 -619
0 -483 0 -480 70 -621 62 -122 156 -180 328 -201 167 -21 334 17 415 95 81 77
122 207 122 384 l0 123 -159 0 -159 0 -4 -127 c-8 -196 -37 -249 -139 -247
-65 1 -99 26 -121 90 -15 43 -17 101 -18 499 0 294 4 464 11 490 23 86 101
124 186 90 62 -25 75 -61 81 -222 l5 -133 158 0 159 0 0 128 c0 181 -35 288
-125 377 -63 64 -142 87 -310 91 -71 1 -141 0 -155 -2z"/>
<path d="M2321 2607 c-84 -419 -155 -774 -158 -790 l-5 -28 158 3 158 3 31
170 30 170 124 3 c69 1 128 -1 132 -5 5 -5 21 -84 36 -176 l27 -167 153 0
c117 0 153 3 153 13 0 7 -70 361 -155 787 -85 426 -155 776 -155 777 0 2 -84
3 -187 3 l-188 0 -154 -763z m394 39 c25 -158 45 -294 45 -302 0 -11 -20 -14
-95 -14 -89 0 -95 1 -95 21 0 18 70 484 86 569 4 19 8 31 10 25 2 -5 24 -140
49 -299z"/>
<path d="M3130 3250 l0 -120 130 0 130 0 0 -670 0 -670 165 0 165 0 0 670 0
670 125 0 125 0 0 120 0 120 -420 0 -420 0 0 -120z"/>
</g>
</svg>
